<?xml version="1.0" encoding="utf-8"?>
<!-- Generator: Adobe Illustrator 15.0.2, SVG Export Plug-In . SVG Version: 6.00 Build 0)  -->
<!DOCTYPE svg PUBLIC "-//W3C//DTD SVG 1.1//EN" "http://www.w3.org/Graphics/SVG/1.1/DTD/svg11.dtd">
<svg version="1.1" id="Layer_1" xmlns="http://www.w3.org/2000/svg" xmlns:xlink="http://www.w3.org/1999/xlink" x="0px" y="0px"
	 width="113.744px" height="426.008px" viewBox="0 0 113.744 426.008" enable-background="new 0 0 113.744 426.008"
	 xml:space="preserve">
<title>black wine bottle</title>
<g>
	<title>Layer 1</title>
	<g id="layer1">
		<g id="layer1-7">
			<g id="g2386">
				<rect id="rect2382" x="74.84" y="177.179" fill="#8F181D" width="33.724" height="236.053"/>
				<rect id="rect2384" x="55.57" y="18.204" fill="#8F181D" width="19.27" height="98.757"/>
				<path id="path2398" fill="#8F181D" d="M38.694,0.729c-0.878,0.667-1.358,2.296-1.555,5.256
					c-0.098,1.485-0.402,2.968-0.672,3.293c-0.299,0.36-0.572,2.96-0.698,6.665c-0.174,5.139-0.091,6.313,0.514,7.588
					c0.318,0.67,0.491,1.508,0.514,5.545l-2.874,79.56c0.206,3.077-0.523,5.621-2.054,8.261c-1.235,2.001-3.244,4.428-7.164,8.945
					C9.038,142.368,1.409,163.558-0.007,185.924L0.058,409.24c0.748,5.789,3.697,14.821,8.339,16.77h96.952
					c4.641-1.947,7.59-10.98,8.338-16.77l0.064-223.316c-1.416-22.366-9.045-43.556-24.712-60.081
					c-4.574-5.271-6.547-7.697-7.726-9.921c-1.317-2.086-1.387-4.318-1.473-6.688l-2.896-80.157
					c0.022-4.038,0.197-4.875,0.515-5.545c0.604-1.274,0.688-2.449,0.515-7.588c-0.127-3.705-0.397-6.305-0.697-6.665
					c-0.271-0.325-0.573-1.808-0.672-3.293c-0.195-2.959-0.678-4.589-1.555-5.256C62.976-0.201,50.77-0.289,38.694,0.729
					L38.694,0.729z"/>
			</g>
		</g>
	</g>
</g>
</svg>
